inDegrees=no
num_controls=7
num_derivatives=13
num_iterations=110
num_multipliers=7
num_parameters=0
num_slacks=7
num_states=26
objective=0.494817
objective_accelerations=0.011239
objective_balance=0.003998
objective_effort=0.017745
objective_height=0.360493
objective_ligament=0.101342
solver_duration=1476.319853
status=Solve_Succeeded
success=true
DataType=double
version=3
OpenSimVersion=4.5
endheader
time	/jointset/ground_pelvis/pelvis_tilt/value	/jointset/ground_pelvis/pelvis_tx/value	/jointset/ground_pelvis/pelvis_ty/value	/jointset/hip_l/hip_flexion_l/value	/jointset/hip_l/hip_adduction_l/value	/jointset/hip_l/hip_rotation_l/value	/jointset/back/lumbar_extension/value	/jointset/patellofemoral_l/patellar_flexion_l/value	/jointset/knee_l/knee_flexion_l/value	/jointset/knee_l/knee_adduction_l/value	/jointset/knee_l/knee_rotation_l/value	/jointset/ankle_l/ankle_angle_l/value	/jointset/subtalar_l/subtalar_angle_l/value	/jointset/ground_pelvis/pelvis_tilt/speed	/jointset/ground_pelvis/pelvis_tx/speed	/jointset/ground_pelvis/pelvis_ty/speed	/jointset/hip_l/hip_flexion_l/speed	/jointset/hip_l/hip_adduction_l/speed	/jointset/hip_l/hip_rotation_l/speed	/jointset/back/lumbar_extension/speed	/jointset/patellofemoral_l/patellar_flexion_l/speed	/jointset/knee_l/knee_flexion_l/speed	/jointset/knee_l/knee_adduction_l/speed	/jointset/knee_l/knee_rotation_l/speed	/jointset/ankle_l/ankle_angle_l/speed	/jointset/subtalar_l/subtalar_angle_l/speed	/forceset/tau_hip_flexion_l	/forceset/tau_hip_adduction_l	/forceset/tau_hip_rotation_l	/forceset/tau_knee_flexion_l	/forceset/tau_ankle_angle_l	/forceset/tau_subtalar_angle_l	/forceset/tau_lumbar_extension	lambda_cid13_p0	lambda_cid13_p1	lambda_cid13_p2	lambda_cid13_p3	lambda_cid13_p4	lambda_cid13_p5	lambda_cid14_p0	/jointset/ground_pelvis/pelvis_tilt/accel	/jointset/ground_pelvis/pelvis_tx/accel	/jointset/ground_pelvis/pelvis_ty/accel	/jointset/hip_l/hip_flexion_l/accel	/jointset/hip_l/hip_adduction_l/accel	/jointset/hip_l/hip_rotation_l/accel	/jointset/back/lumbar_extension/accel	/jointset/patellofemoral_l/patellar_flexion_l/accel	/jointset/knee_l/knee_flexion_l/accel	/jointset/knee_l/knee_adduction_l/accel	/jointset/knee_l/knee_rotation_l/accel	/jointset/ankle_l/ankle_angle_l/accel	/jointset/subtalar_l/subtalar_angle_l/accel	gamma_cid13_p0	gamma_cid13_p1	gamma_cid13_p2	gamma_cid13_p3	gamma_cid13_p4	gamma_cid13_p5	gamma_cid14_p0
1.5	0.07582349543891584	-0.001729515620551111	0.9210456546271751	0.3105549558448441	-0.2402620602833786	-0.3100871977179167	-0.7682879843025923	0.3113221785584089	0.3113221785584515	-0.0373880088842248	-0.1745153987448451	-0.01710422382904558	0.05205781161672252	0.2507325256338057	0.2114764175967772	0.1191608184261146	-0.9609387803988342	0.1222229335666905	-0.2377075444025734	0.847268674310836	-0.7160284555563594	-0.7160284555563504	0.02577358604999004	-5.662926820334726e-05	0.008956718007363898	0.1335826212992786	-0.1473819367132364	0.05295896844735527	-0.007953681210451502	-0.1064753663383497	0.1089514434622161	-0.002106211591700221	0.2505396609679726	-11.12706744992879	0.2386680290256162	2.505256784373286	-0.9220167956622427	-693.8190974136187	-51.40673411923327	-23.48988055422784	-0.299486842443877	0.3489452244639588	-0.1309714186283979	-0.2310936454039677	-0.006327677747935427	-0.05325854432942928	1.480544207978735	-0.3614521259591993	-0.3614521259591934	-0.3240389840305297	-0.002121317023990262	0.1400317022008499	0.05393655728353544	2.287387269119385e-08	3.944805770675255e-09	-7.275304009379965e-08	-7.426334306889948e-09	3.431049097227315e-08	-9.318319023310792e-10	1.397331343552355e-08
1.51	0.07831577513748257	0.0004024662062324505	0.9222305220612025	0.300934769866411	-0.2390405694467886	-0.3124665186093253	-0.759742643973753	0.304144658880014	0.3041446588800013	-0.03714716007558702	-0.1745160056976276	-0.01700771370404539	0.05339587426241522	0.2477067965960796	0.2148958604944815	0.1177917750520951	-0.9629913935013474	0.122048410235727	-0.2381231396325388	0.8616747142163931	-0.7193675791464959	-0.7193675791465677	0.02237156188450928	-6.211170065896989e-05	0.01035377495118083	0.1340054143245149	-0.1411156688404707	0.05116770257685577	-0.007892905601059524	-0.1075215017219776	0.1101234932576345	-0.003117554200371256	0.244719819785844	-10.70517312142691	0.5955903606752747	2.45798622382852	-0.8866622256874448	-692.0456304491562	-51.53166698601335	-23.42987102460026	-0.3066062543602077	0.3348289908853814	-0.1429954781802569	-0.1762887097211212	-0.02703723749278992	-0.0306724630677529	1.401932295779166	-0.3039601458324993	-0.3039601458446236	-0.3519773471257528	0.0006219480928690257	0.1408151176121003	0.03278246781762883	2.24808310147029e-08	1.037720793663088e-08	-7.119674425191679e-08	-8.272449501785892e-09	4.241399432549862e-08	-6.570834544003441e-10	1.404609957097513e-08
1.52	0.08077729948168705	0.002567919495685408	0.9234010741252114	0.2912972690435434	-0.2378216283588528	-0.3148489879431813	-0.7510569835630712	0.2969369844316592	0.2969369844315909	-0.03694107015146751	-0.1745165907438456	-0.01689697852417898	0.05473743119689509	0.2445814547614257	0.2181707101306563	0.1162977444224128	-0.9644017492857047	0.1217129838358746	-0.2383372328920106	0.8753326906793495	-0.7220594095482975	-0.7220594095484502	0.0188218091462721	-5.224795514617987e-05	0.01180172898059696	0.1342814790567093	-0.1348494009677045	0.04937643670635579	-0.007832129991660297	-0.1085676371056052	0.1112955430530528	-0.004128896809042951	0.2388999786037158	-10.28532221781178	0.9532836647114048	2.41012086052766	-0.8672790138553828	-690.3048393951855	-51.66445787738717	-23.36384367337231	-0.3194094018294056	0.3200265721580519	-0.1559688697609332	-0.1026421817727529	-0.03850829152574068	-0.01295815023068156	1.330931519458608	-0.2319934882922317	-0.2319934882922293	-0.3535846985818028	0.0009479185696873737	0.1502111193206664	0.02459089867513931	2.193391319152407e-08	1.720504562724058e-08	-6.923780374729745e-08	-9.075520848625338e-09	5.087130666682017e-08	-3.048266093705044e-10	1.406517059039454e-08
1.53	0.08320711282650402	0.004765349936382701	0.9245560788292706	0.2816488508307973	-0.2366068279866677	-0.3172327040152225	-0.742238679608561	0.289705574863832	0.2897055748637878	-0.03677115941079034	-0.1745170800099773	-0.01677157620090203	0.05608100898598729	0.2413651060497788	0.221286038228562	0.1146831302719812	-0.9651670314141318	0.1212211713314682	-0.2383770567674553	0.8881870922310586	-0.7241100532770037	-0.7241100532771181	0.01514205008050292	-4.719372010814955e-05	0.01328410156789188	0.1344093442754551	-0.1283868433474486	0.04747773036822161	-0.007767328369537829	-0.109818682938001	0.1126049769883091	-0.005195135806882344	0.2328837095985554	-9.828196506217685	1.33116036313997	2.355761199649759	-0.8108505668382493	-688.5720830003748	-51.79480419190982	-23.29177534123823	-0.3251626618877809	0.3028829138573001	-0.1672047186135422	-0.04623963744117112	-0.05840808812654086	0.004858013386933348	1.241543274313108	-0.174735005499832	-0.1747350054940976	-0.3779128070530441	3.230757029574154e-05	0.1480574983376888	0.003177126710924779	2.122350196248939e-08	2.445303356279523e-08	-6.68510532885206e-08	-9.832858106904757e-09	5.970454105799382e-08	1.29782907577133e-10	1.402716929902976e-08
1.54	0.08560427967299318	0.006993053055109157	0.9256943379856395	0.2719962261149541	-0.2353977238111721	-0.3196159478221006	-0.7332960618782767	0.2824570318206498	0.2824570318206301	-0.03663859452006647	-0.1745175691074395	-0.01663118871777134	0.05742512398591428	0.2380521550959153	0.224225245736489	0.1129486348843776	-0.9652430499050969	0.1205737444979242	-0.2382427798593683	0.9001954458342096	-0.7254861046193105	-0.7254861046193868	0.01135263915559074	-5.221422109298265e-05	0.01479876095133794	0.1343889212236655	-0.1219242857271923	0.0455790240300871	-0.007702526747409633	-0.1110697287703967	0.1139144109235654	-0.006261374804722213	0.2268674405933953	-9.372466790043346	1.709905546035991	2.300550315491163	-0.7717213946694962	-686.8619973905865	-51.93061409478238	-23.21366796456386	-0.3387298502727077	0.2848024541622848	-0.1799451171953194	0.03521054571972187	-0.06963115735325695	0.02186200647564084	1.161721929747001	-0.09707501101235583	-0.09707501101235724	-0.3755150704103936	-0.001067028634890937	0.156668478550872	-0.005066755431972382	2.041187774359892e-08	3.227811107604642e-08	-6.429921634178421e-08	-1.047717199252965e-08	6.850059896583523e-08	7.29993510168012e-10	1.400917721408148e-08
1.55	0.08796788311199846	0.009249219552929767	0.9268146740287357	0.2623462291902069	-0.2341958897425613	-0.3219969851341849	-0.7242377836402619	0.2751980301887903	0.2751980301887987	-0.03654451862955352	-0.1745181524391233	-0.01647557837792293	0.05876824093800079	0.2346537652262641	0.2269734846111504	0.1110996952836726	-0.9646369290501601	0.1197640203869387	-0.2379289534912626	0.9113030897015397	-0.7261986808266325	-0.7261986808267687	0.00743976004569119	-6.107111737253704e-05	0.01632376227681666	0.1342043985317282	-0.1152968038572284	0.04357493372855539	-0.007633582282762349	-0.1125186203731885	0.1153440379692912	-0.007374620125936964	0.2206915523409584	-8.887479018170286	2.106704745326013	2.239306147916754	-0.6884490259913834	-685.2021423336145	-52.06950839360134	-23.12954326129325	-0.3426087630166894	0.2646469662196025	-0.1901837258460256	0.09122508311961668	-0.09100663539780127	0.04151645140892057	1.06171880517188	-0.04102059010375411	-0.04102059011274648	-0.4025854829849477	-0.0003012526002454795	0.1504865991580376	-0.02965598408008214	1.948363855813549e-08	4.076809614620881e-08	-6.155717105022491e-08	-1.09912632966178e-08	7.725382309940252e-08	1.521005363608703e-09	1.401423921478699e-08
1.56	0.09029705961076602	0.01153183091191731	0.9279159576069573	0.252705875919557	-0.2330030256345453	-0.3243738094827022	-0.7150731423255847	0.2679353684619552	0.2679353684619913	-0.03649025376048069	-0.1745187255862656	-0.01630470389689739	0.06010861047156683	0.231166767048399	0.2295142179698759	0.1091381419094491	-0.9633143190856639	0.1187797523788892	-0.2374001871459218	0.9214680611667047	-0.7262181236144196	-0.7262181236146159	0.003390434867582975	-5.017731268263205e-05	0.0178515891867618	0.133839437519572	-0.1086693219872641	0.04157084342702354	-0.007564637818110726	-0.1139675119759801	0.1167736650150169	-0.008487865447152002	0.2145156640885216	-8.40327920337236	2.504475371231211	2.176955158991729	-0.6234395852163447	-683.5555044328561	-52.21130106570632	-23.03943709325547	-0.3564515119154955	0.2433013509750829	-0.2024678718990162	0.178508367631643	-0.1045399367660442	0.06485000192266137	0.9731874493139754	0.04155167289462981	0.04155167289462953	-0.4028042840521163	0.002883111558994608	0.1572335954441355	-0.0411544194757486	1.834018503996846e-08	4.94201902195948e-08	-5.841401112209063e-08	-1.135385177224112e-08	8.589872519276657e-08	2.381726409877422e-09	1.394041311878944e-08
1.57	0.09259095609047166	0.01383876980909503	0.9289970864631412	0.2430823040678195	-0.2318208330248933	-0.3267444109281785	-0.7058117038381003	0.2606759049781462	0.2606759049782033	-0.03647705965241877	-0.1745191850972834	-0.01611859811721912	0.06144445032648002	0.2275975385125923	0.2318343767053678	0.1070702741956325	-0.9612733228813255	0.117632239659907	-0.2366902008817454	0.9306516659078758	-0.7255563116962652	-0.7255563116963568	-0.0007650871819498699	-4.318644163472835e-05	0.01936734957071681	0.1332999950535276	-0.1019274888950656	0.03949108660508947	-0.007495667901307924	-0.1155985731777913	0.118318216128776	-0.009644666846388903	0.2082420257383491	-7.894789149059364	2.919512468344108	2.108877982167308	-0.5205460346193965	-682.01838562516	-52.35795924352457	-22.94340730502345	-0.3594085434849753	0.2204930953820957	-0.2115296293513871	0.2359046985009806	-0.123846663691989	0.07857218802874853	0.8657514231992287	0.0962324352073558	0.09623243522305656	-0.4239377036797327	-0.0006250165123500201	0.1484169912226801	-0.06462391808186126	1.692771360592196e-08	5.827492054701028e-08	-5.476945789823764e-08	-1.152706171228339e-08	9.440822473587656e-08	3.329583947181177e-09	1.376797690191305e-08
